<svg width="714" height="620" viewBox="0 0 714 620" fill="none" xmlns="http://www.w3.org/2000/svg">
<path fill-rule="evenodd" clip-rule="evenodd" d="M472.622 198.509L492.221 185.909C498.596 182.23 498.629 176.247 492.323 172.58L428.379 136.139L431.372 135L494.732 171.185C502.362 175.62 502.322 182.857 494.62 187.305L475.024 199.901L472.622 198.509ZM772.303 437.776L708.013 400.868C710.702 398.532 710.283 395.354 706.742 393.278C704.717 392.253 702.501 391.66 700.234 391.537C697.967 391.414 695.7 391.763 693.575 392.562L653.401 369.499L695.734 344.9L695.796 344.937L749.19 314.082C756.896 309.633 756.935 302.396 749.302 297.964L666.347 251.698L664.021 253.045L746.89 299.36C753.2 303.027 753.16 309.006 746.791 312.686L696.846 341.551L696.809 341.531L651.028 368.136L594.087 335.446L591.757 336.792L648.679 369.502L644.643 371.845C641.149 373.618 637.287 374.543 633.369 374.543C629.451 374.543 625.588 373.618 622.094 371.845L604.182 361.724C604.406 361.6 604.59 361.413 604.71 361.186C604.83 360.959 604.882 360.702 604.858 360.446C604.834 360.19 604.736 359.947 604.576 359.746C604.416 359.545 604.201 359.395 603.957 359.315L590.777 351.675L584.035 355.566L597.215 363.225C597.917 363.578 598.691 363.762 599.476 363.762C600.261 363.762 601.035 363.578 601.736 363.225L601.878 363.143L619.738 373.231C623.963 375.377 628.636 376.495 633.375 376.495C638.114 376.495 642.787 375.377 647.012 373.231L651.052 370.885L691.163 393.915C688.064 396.275 688.315 399.634 692.018 401.786C694.125 402.851 696.44 403.445 698.8 403.528C701.16 403.61 703.51 403.177 705.686 402.261L769.894 439.158C776.204 442.825 776.164 448.804 769.795 452.487L760.885 457.596L760.823 457.559L750.236 463.71L745.257 466.572H745.286L708.656 487.857C705.163 489.632 701.299 490.557 697.38 490.557C693.461 490.557 689.598 489.632 686.104 487.857L643.656 463.347L641.901 465.064L683.751 489.223C687.976 491.368 692.648 492.486 697.387 492.486C702.125 492.486 706.797 491.368 711.022 489.223L747.652 467.941L772.178 453.857C779.897 449.448 779.933 442.211 772.303 437.776ZM384.093 392.17L386.3 393.443C387.001 393.798 387.776 393.983 388.561 393.983C389.346 393.983 390.121 393.798 390.821 393.443L404.002 385.784L397.263 381.89L384.08 389.553C383.807 389.647 383.571 389.825 383.404 390.06C383.238 390.296 383.149 390.577 383.15 390.866C383.152 391.154 383.243 391.435 383.412 391.669C383.581 391.903 383.819 392.078 384.093 392.17ZM562.635 416.26L506.244 383.487L503.684 384.969L560.17 417.639L562.635 416.26ZM219.719 385.86L276.109 418.632L273.644 420.012L217.158 387.338L219.719 385.86ZM272.375 478.465L269.814 476.986L249.275 488.969C247.062 487.968 244.652 487.476 242.224 487.529C239.796 487.583 237.41 488.179 235.243 489.276C231.204 491.622 231.227 495.43 235.293 497.78C237.567 498.937 240.082 499.54 242.633 499.54C245.185 499.54 247.7 498.937 249.974 497.78C253.377 495.8 253.862 492.797 251.512 490.49L272.375 478.465ZM197.27 370.34L155 345.758L157.561 344.283L199.738 368.961L197.27 370.34ZM629.024 510.752C626.857 509.656 624.472 509.06 622.045 509.007C619.617 508.954 617.209 509.445 614.996 510.445L575.894 487.563C576.13 487.446 576.327 487.261 576.458 487.032C576.59 486.804 576.651 486.541 576.634 486.278C576.616 486.015 576.522 485.763 576.361 485.553C576.201 485.344 575.982 485.186 575.732 485.101L563.522 478.013L567.991 475.416L565.407 474.181L549.451 483.339C545.824 485.181 541.814 486.141 537.746 486.141C533.678 486.141 529.668 485.181 526.041 483.339L516.471 477.858L511.911 475.217C507.524 472.991 502.673 471.831 497.754 471.831C492.834 471.831 487.984 472.991 483.597 475.217L429.094 506.683L431.536 508.105L486.042 476.637C489.669 474.795 493.679 473.835 497.747 473.835C501.815 473.835 505.825 474.795 509.452 476.637L514.455 479.547H514.55L523.612 484.778C527.998 487.005 532.848 488.166 537.768 488.166C542.687 488.166 547.537 487.005 551.923 484.778L556.814 481.936L568.991 489.015C569.667 489.352 570.411 489.532 571.167 489.542C571.923 489.551 572.671 489.391 573.356 489.071L612.758 511.983C610.406 514.293 610.887 517.296 614.293 519.276C616.567 520.433 619.082 521.036 621.634 521.036C624.185 521.036 626.701 520.433 628.975 519.276C629.87 518.982 630.65 518.414 631.205 517.652C631.76 516.891 632.061 515.974 632.067 515.032C632.072 514.09 631.781 513.169 631.236 512.401C630.689 511.633 629.916 511.056 629.024 510.752ZM324.492 541.911L326.023 542.795C333.653 547.23 333.61 554.467 325.905 558.919L301.376 573L298.977 571.608L323.502 557.523C329.868 553.844 329.911 547.864 323.598 544.194L317.466 540.637L268.587 512.415C260.885 507.967 260.845 500.733 268.475 496.298L298.218 479.046C297.254 478.316 297.303 477.29 298.439 476.63L311.619 468.971L318.361 472.865L305.181 480.524C304.479 480.877 303.705 481.061 302.92 481.061C302.135 481.061 301.361 480.877 300.66 480.524L300.571 480.475L270.89 497.691C264.577 501.36 264.61 507.34 270.986 511.019L324.492 541.911ZM462.55 453.404C460.19 455.714 460.672 458.717 464.081 460.697C466.355 461.854 468.87 462.457 471.422 462.457C473.973 462.457 476.488 461.854 478.762 460.697C479.651 460.398 480.423 459.83 480.972 459.07C481.521 458.311 481.819 457.399 481.824 456.462C481.829 455.525 481.541 454.61 481 453.844C480.46 453.079 479.693 452.502 478.809 452.193C476.642 451.098 474.258 450.501 471.831 450.448C469.404 450.394 466.996 450.884 464.784 451.883L406.11 417.431C406.346 417.314 406.543 417.13 406.674 416.901C406.806 416.673 406.868 416.41 406.851 416.147C406.834 415.884 406.739 415.632 406.579 415.422C406.419 415.212 406.201 415.055 405.951 414.969L393.811 407.91L428.536 387.827L425.972 386.348L369.582 419.117L372.05 420.497L387.072 411.808L399.209 418.86C399.885 419.197 400.629 419.378 401.384 419.388C402.139 419.399 402.887 419.238 403.572 418.919L462.55 453.404ZM528.408 435.327L536.873 440.168C540.495 442.006 544.499 442.965 548.56 442.966C552.622 442.968 556.627 442.013 560.25 440.178L576.206 431.024L578.79 432.255L562.709 441.597C558.322 443.824 553.472 444.984 548.553 444.984C543.634 444.984 538.784 443.824 534.398 441.597L525.924 436.706L501.117 422.358C500.463 422.617 499.761 422.736 499.057 422.708C498.354 422.679 497.664 422.504 497.032 422.193L483.852 414.534L485.72 413.455L469.438 404.033L471.998 402.555L488.244 411.996L490.594 410.64L503.774 418.299C504.047 418.392 504.284 418.569 504.452 418.803C504.619 419.038 504.71 419.319 504.71 419.607C504.71 419.896 504.619 420.177 504.452 420.412C504.284 420.646 504.047 420.823 503.774 420.916L503.691 420.965L528.408 435.327Z" fill="#DFDFED" fill-opacity="0.5"/>
<path d="M264.567 594.993C270.992 594.991 277.329 593.491 283.073 590.612L501.709 464.072C508.816 459.839 512.813 454.095 512.976 447.885C512.968 445.048 512.231 442.261 510.833 439.792C509.436 437.322 507.427 435.253 504.998 433.784L504.917 433.73L281.681 306.588C275.652 303.078 268.842 301.129 261.867 300.918C254.893 300.707 247.977 302.24 241.746 305.379L23.0796 432.116C20.2256 434.089 17.9038 436.736 16.3204 439.822C14.737 442.908 13.9411 446.337 14.0034 449.805C14.1282 452.51 14.9472 455.138 16.3814 457.436C17.8156 459.733 19.817 461.624 22.1932 462.926L243.782 589.382C250.092 593.057 257.264 594.993 264.567 594.993ZM503.494 436.115C505.519 437.331 507.199 439.044 508.373 441.091C509.548 443.139 510.178 445.453 510.205 447.813C510.066 453.037 506.553 457.962 500.303 461.68L281.757 588.172C276.039 591.028 269.699 592.413 263.311 592.202C256.922 591.991 250.687 590.19 245.171 586.963L23.5848 460.51C21.6132 459.434 19.9514 457.87 18.7594 455.967C17.5673 454.064 16.885 451.887 16.7776 449.645C16.7329 446.661 17.4226 443.712 18.7863 441.057C20.1501 438.402 22.1459 436.122 24.5982 434.419L243.059 307.806C248.873 304.893 255.323 303.476 261.823 303.683C268.324 303.89 274.67 305.714 280.287 308.992L503.494 436.115Z" fill="#8235FF"/>
<path d="M264.571 567.094C270.996 567.091 277.331 565.591 283.074 562.713L501.713 436.173C508.82 431.94 512.817 426.196 512.98 419.986C512.971 417.15 512.232 414.363 510.835 411.894C509.438 409.425 507.43 407.356 505.002 405.886L504.918 405.834L281.686 278.689C275.657 275.179 268.845 273.23 261.871 273.019C254.897 272.808 247.981 274.341 241.75 277.48L23.0835 404.217C20.2294 406.189 17.9074 408.836 16.324 411.921C14.7405 415.007 13.9447 418.436 14.0073 421.903C14.1305 424.609 14.9487 427.238 16.3831 429.536C17.8174 431.835 19.8196 433.726 22.1971 435.027L243.783 561.483C250.093 565.159 257.267 567.095 264.571 567.094ZM503.499 408.217C505.523 409.432 507.202 411.145 508.376 413.193C509.55 415.24 510.18 417.554 510.206 419.914C510.07 425.138 506.554 430.066 500.307 433.782L281.758 560.274C276.04 563.128 269.7 564.512 263.312 564.301C256.923 564.09 250.689 562.29 245.172 559.064L23.5857 432.612C21.6143 431.536 19.953 429.971 18.7614 428.068C17.5698 426.165 16.888 423.988 16.7816 421.746C16.7354 418.762 17.4244 415.813 18.7877 413.158C20.1509 410.502 22.1467 408.223 24.5991 406.52L243.06 279.907C248.874 276.994 255.324 275.577 261.824 275.784C268.325 275.991 274.671 277.815 280.288 281.093L503.499 408.217Z" fill="url(#paint0_linear_228_238)" style="mix-blend-mode:lighten"/>
<path d="M211.565 203.37C214.463 203.37 217.037 201.117 217.037 197.898C217.037 195.003 214.785 192.426 211.565 192.426C208.67 192.426 206.094 194.678 206.094 197.898C206.094 200.796 208.67 203.37 211.565 203.37Z" fill="url(#paint1_linear_228_238)"/>
<path d="M143.442 429.256C146.337 429.256 148.914 427 148.914 423.784C148.914 420.565 146.662 418.312 143.442 418.312C140.544 418.312 137.971 420.565 137.971 423.784C137.971 427 140.544 429.256 143.442 429.256Z" fill="url(#paint2_linear_228_238)"/>
<path d="M291.808 455.001C294.706 455.001 297.279 452.749 297.279 449.532C297.279 446.313 295.027 444.061 291.808 444.061C288.913 444.061 286.336 446.313 286.336 449.532C286.336 452.749 288.913 455.001 291.808 455.001Z" fill="url(#paint3_linear_228_238)"/>
<path d="M195.578 357.158C193.326 373.895 192.359 379.045 195.899 384.517C199.44 389.988 202.014 389.021 200.407 395.46C198.797 402.217 198.797 413.806 202.659 418.954C205.554 422.816 209.417 425.393 215.531 427.002C219.072 427.966 220.039 432.474 217.141 435.048C206.2 444.06 198.476 444.381 193.968 442.772C188.497 440.841 174.016 427.324 169.508 404.794C165.003 382.264 165.003 375.183 165.003 375.183C160.177 371.964 155.67 367.138 155.991 363.597C156.315 360.056 156.315 355.548 156.315 355.548L195.578 357.158Z" fill="#C2CBD2"/>
<path d="M191.716 362.308L195.257 360.056L186.887 358.125L188.175 371.321L178.842 391.598L191.395 434.08L190.752 444.381L201.371 443.093L199.762 425.071L196.867 407.367" fill="#000126"/>
<path d="M108.363 324.974C110.615 340.1 122.523 355.227 137.971 354.263C139.902 354.263 142.154 353.939 144.406 353.617C160.5 352.008 166.615 351.365 175.948 351.687C168.224 341.71 162.752 329.478 160.821 316.928C158.89 304.375 160.179 290.858 164.684 279.272C155.671 282.488 149.878 283.777 134.109 286.996C131.856 287.317 129.604 287.96 127.673 288.281C119.949 289.891 114.477 295.363 111.258 302.123C108.363 309.204 107.396 317.571 108.363 324.974Z" fill="#C7CFD6"/>
<g filter="url(#filter0_d_228_238)">
<path d="M369.37 379.685C368.728 386.767 368.085 394.169 364.866 400.608C364.223 401.893 363.577 403.182 362.292 403.503C360.682 404.149 358.751 402.539 357.463 401.572C328.176 376.148 288.914 365.526 250.936 361.663C205.234 356.834 176.269 362.627 162.109 362.627C123.489 361.018 113.51 313.385 128.315 288.925C134.429 278.624 144.085 274.762 155.028 271.867C155.028 271.867 197.831 262.211 231.626 248.049C267.669 232.601 301.142 210.071 322.705 176.277C327.855 168.228 334.933 179.817 340.726 193.977C347.165 209.104 352.312 227.129 352.312 227.129C355.532 285.384 351.67 258.349 370.337 344.606C370.337 344.606 370.98 363.273 369.37 379.685Z" fill="url(#paint4_linear_228_238)"/>
</g>
<path d="M162.752 362.31C163.073 362.31 163.074 362.31 163.395 362.31C172.086 362.31 181.095 360.7 189.465 360.379C197.832 359.736 206.198 359.737 214.568 359.737C204.592 346.216 196.222 327.873 193.648 311.779C191.075 296.007 194.291 275.087 199.763 259.639C145.373 277.018 137.649 269.294 126.706 292.145C111.9 323.044 132.177 364.241 162.752 362.31Z" fill="url(#paint5_linear_228_238)"/>
<path d="M216.5 359.736C215.854 359.736 215.211 359.736 214.569 359.736H212.638C202.658 345.894 194.613 327.227 192.36 312.1C190.108 297.94 192.36 277.663 198.153 260.281C198.796 259.959 199.442 259.959 200.084 259.638C200.727 259.317 201.373 259.317 202.015 258.996C202.015 259.317 201.694 259.638 201.694 260.281C195.901 277.342 193.649 297.616 195.901 311.779C198.153 326.584 206.199 345.252 216.5 358.769C215.854 359.09 216.175 359.411 216.5 359.736Z" fill="#C2CBD2"/>
<path d="M145.373 290.536L167.257 286.998C168.867 286.674 170.155 285.067 169.834 283.457C169.509 281.848 167.903 280.559 166.293 280.881L144.406 284.421C142.8 284.743 141.511 286.352 141.833 287.962C142.154 289.572 143.442 290.86 145.373 290.536Z" fill="#C2CBD2"/>
<path d="M141.192 304.376L163.075 300.835C164.685 300.514 165.974 298.904 165.649 297.295C165.328 295.685 163.718 294.4 162.112 294.721L140.225 298.262C138.615 298.583 137.33 300.193 137.651 301.799C137.972 303.409 139.582 304.697 141.192 304.376Z" fill="#C2CBD2"/>
<path d="M141.832 317.57L163.716 314.029C165.325 313.708 166.614 312.098 166.292 310.488C165.971 308.879 164.361 307.593 162.752 307.915L140.868 311.456C139.258 311.777 138.291 313.065 138.291 314.996C138.612 316.603 140.222 317.891 141.832 317.57Z" fill="#C2CBD2"/>
<path d="M191.718 362.308L195.259 360.056L186.892 358.125L178.201 359.41L178.844 391.598L191.397 434.08L190.754 444.381L201.373 443.093L199.764 425.071L196.869 407.367" fill="#BBC5CD"/>
<path d="M186.887 358.125C184.635 374.862 183.671 380.009 187.212 385.481C190.75 390.631 193.326 389.988 191.717 396.424C190.107 403.184 190.107 414.77 193.969 419.921C196.867 423.783 200.729 426.356 206.843 427.966C210.384 428.933 211.348 433.438 208.453 436.011C197.51 445.024 189.786 445.345 185.281 443.739C179.809 441.808 165.325 428.287 160.821 405.758C156.316 383.228 156.316 375.826 156.316 375.826C151.487 372.606 146.982 367.78 147.303 364.239C147.625 361.02 147.625 359.41 147.625 359.41L186.887 358.125Z" fill="url(#paint6_linear_228_238)"/>
<g filter="url(#filter1_b_228_238)">
<path d="M609 0L584.5 522.5L373.5 399.5L348 170.5L609 0Z" fill="url(#paint7_linear_228_238)"/>
</g>
<path d="M385.529 412.64C416.271 407.888 432.384 347.069 421.521 276.8C410.655 206.529 376.928 153.418 346.186 158.17C315.444 162.922 299.331 223.741 310.194 294.012C321.06 364.281 354.787 417.392 385.529 412.64Z" fill="#0C0E47"/>
<path d="M383.856 401.895C366.798 404.472 342.98 375.182 328.821 328.513C325.28 317.248 322.706 305.02 320.454 292.145C318.202 278.625 317.234 265.429 317.234 253.2C317.234 205.565 330.752 171.127 347.809 168.554C369.051 165.334 400.589 211.358 410.89 278.304C421.188 344.928 405.097 398.678 383.856 401.895Z" fill="#8235FF"/>
<path d="M372.59 319.502L329.141 328.515C325.603 317.25 323.026 305.018 320.774 292.144C318.522 278.627 317.555 265.431 317.555 253.202L360.361 250.304L366.154 277.984L372.59 319.502Z" fill="url(#paint8_linear_228_238)"/>
<path d="M371.302 320.146C377.741 319.182 382.567 303.088 379.35 283.135C376.131 263.179 366.797 249.341 360.362 250.305C353.923 251.272 349.097 267.363 352.316 287.319C355.532 307.274 364.866 321.113 371.302 320.146Z" fill="#8995B5"/>
<path d="M368.728 304.052C372.268 303.41 374.842 294.718 373.232 284.1C371.622 273.156 366.475 265.753 362.934 266.399C359.394 267.042 356.82 275.733 358.43 286.352C360.361 297.295 365.187 304.698 368.728 304.052Z" fill="#0C0E47"/>
<path d="M416.363 162.439L430.201 172.094L414.753 194.623C413.144 196.875 416.042 199.773 418.294 198.164L459.809 168.232C461.74 166.622 462.065 163.727 459.809 162.117L444.361 150.852L459.809 122.851C461.098 120.599 458.203 118.022 456.272 119.953L416.042 156.324C414.111 158.255 414.432 161.15 416.363 162.439Z" fill="#03CB88"/>
<path d="M455.626 167.263C455.305 167.263 455.305 167.263 454.983 166.942L442.109 157.287C441.145 156.641 441.145 155.356 441.788 154.389C442.43 153.425 443.719 153.425 444.683 154.067L457.557 163.723C458.524 164.365 458.524 165.654 457.878 166.621C457.236 167.263 456.269 167.584 455.626 167.263Z" fill="white"/>
<path d="M420.544 156.967L451.119 126.714C451.441 126.392 452.408 126.392 452.729 126.714C453.05 127.035 453.05 127.999 452.729 128.323L423.443 159.541C422.797 160.183 421.512 160.505 420.544 159.541C419.902 158.898 419.902 157.61 420.544 156.967Z" fill="white"/>
<path d="M464.635 248.373L469.461 264.464L443.394 272.188C440.817 272.834 441.139 277.017 444.037 277.017L495.21 279.912C497.784 279.912 499.715 277.66 499.072 275.086L494.243 256.419L524.175 244.511C526.749 243.544 525.782 239.682 523.208 240.007L468.497 243.544C465.599 243.544 463.989 246.121 464.635 248.373Z" fill="#03CB88"/>
<path d="M491.992 276.697C491.992 276.373 491.67 276.373 491.67 276.051L487.808 260.282C487.487 259.318 488.13 258.03 489.418 258.03C490.382 257.708 491.67 258.351 491.67 259.639L495.532 275.409C495.854 276.373 495.211 277.661 493.923 277.661C493.28 277.982 492.313 277.661 491.992 276.697Z" fill="white"/>
<path d="M471.394 246.762L514.197 242.579C514.843 242.579 515.486 242.9 515.486 243.543C515.486 244.189 515.165 244.831 514.522 244.831L471.715 250.624C470.751 250.624 469.784 249.982 469.463 249.015C469.463 248.051 470.109 247.084 471.394 246.762Z" fill="white"/>
<path d="M465.92 356.514L460.773 372.605L435.024 364.238C432.45 363.271 430.519 366.812 432.771 368.422L473.323 399.639C475.254 401.249 478.473 400.285 479.116 398.029L485.554 380.008L516.772 386.765C519.346 387.411 520.634 383.87 518.382 382.581L471.392 354.262C469.461 353.295 466.566 354.262 465.92 356.514Z" fill="#03CB88"/>
<path d="M472.361 395.457C472.361 395.136 472.361 395.136 472.361 394.814L478.154 379.687C478.476 378.72 479.764 378.078 480.728 378.399C481.695 378.72 482.338 380.009 482.016 380.973L476.223 396.1C475.902 397.067 474.614 397.709 473.65 397.388C472.683 397.067 472.361 396.421 472.361 395.457Z" fill="white"/>
<path d="M472.359 359.09L510.012 380.01C510.658 380.331 510.658 380.973 510.337 381.619C510.012 382.262 509.37 382.262 508.727 381.94L470.107 362.631C469.14 361.988 468.819 361.021 469.14 360.057C470.107 359.09 471.392 358.447 472.359 359.09Z" fill="white"/>
<path d="M198.153 379.045C199.12 379.045 200.73 378.721 202.339 378.078C200.408 372.285 200.084 370.997 199.441 367.781C199.12 365.528 199.762 359.411 199.762 359.411H199.441C197.189 359.411 194.936 359.089 193.005 358.768L190.753 370.997L190.107 378.399L195.9 379.045C196.546 379.045 197.189 379.045 198.153 379.045Z" fill="#C7CFD6"/>
<path d="M189.466 358.768L187.535 376.468C187.535 376.468 187.856 380.009 195.58 377.436C193.649 371.643 193.328 370.354 192.682 367.135C192.361 364.882 193.007 358.768 193.007 358.768H189.466Z" fill="#314785"/>
<defs>
<filter id="filter0_d_228_238" x="63.4025" y="144.442" width="365.44" height="346.778" filterUnits="userSpaceOnUse" color-interpolation-filters="sRGB">
<feFlood flood-opacity="0" result="BackgroundImageFix"/>
<feColorMatrix in="SourceAlpha" type="matrix" values="0 0 0 0 0 0 0 0 0 0 0 0 0 0 0 0 0 0 127 0" result="hardAlpha"/>
<feOffset dy="29.1894"/>
<feGaussianBlur stdDeviation="29.1894"/>
<feColorMatrix type="matrix" values="0 0 0 0 0.397708 0 0 0 0 0.47749 0 0 0 0 0.575 0 0 0 0.18 0"/>
<feBlend mode="normal" in2="BackgroundImageFix" result="effect1_dropShadow_228_238"/>
<feBlend mode="normal" in="SourceGraphic" in2="effect1_dropShadow_228_238" result="shape"/>
</filter>
<filter id="filter1_b_228_238" x="288" y="-60" width="381" height="642.5" filterUnits="userSpaceOnUse" color-interpolation-filters="sRGB">
<feFlood flood-opacity="0" result="BackgroundImageFix"/>
<feGaussianBlur in="BackgroundImage" stdDeviation="30"/>
<feComposite in2="SourceAlpha" operator="in" result="effect1_backgroundBlur_228_238"/>
<feBlend mode="normal" in="SourceGraphic" in2="effect1_backgroundBlur_228_238" result="shape"/>
</filter>
<linearGradient id="paint0_linear_228_238" x1="-734467" y1="36173.1" x2="-518791" y2="-6728.85" gradientUnits="userSpaceOnUse">
<stop stop-color="#4F24FF"/>
<stop offset="1" stop-color="#32D697"/>
</linearGradient>
<linearGradient id="paint1_linear_228_238" x1="206.126" y1="197.869" x2="216.529" y2="197.869" gradientUnits="userSpaceOnUse">
<stop stop-color="#83A6FF"/>
<stop offset="1" stop-color="#5A78FF"/>
</linearGradient>
<linearGradient id="paint2_linear_228_238" x1="138.035" y1="423.82" x2="148.439" y2="423.82" gradientUnits="userSpaceOnUse">
<stop stop-color="#FF66A9"/>
<stop offset="1" stop-color="#F53689"/>
</linearGradient>
<linearGradient id="paint3_linear_228_238" x1="286.442" y1="449.719" x2="296.846" y2="449.719" gradientUnits="userSpaceOnUse">
<stop stop-color="#83A6FF"/>
<stop offset="1" stop-color="#5A78FF"/>
</linearGradient>
<linearGradient id="paint4_linear_228_238" x1="243.257" y1="399.145" x2="243.257" y2="192.269" gradientUnits="userSpaceOnUse">
<stop offset="0.197917" stop-color="#EBECEE"/>
<stop offset="1" stop-color="#C3C5CA"/>
</linearGradient>
<linearGradient id="paint5_linear_228_238" x1="167.092" y1="360.363" x2="167.092" y2="267.963" gradientUnits="userSpaceOnUse">
<stop offset="0.197917" stop-color="#EBECEE"/>
<stop offset="1" stop-color="#C3C5CA"/>
</linearGradient>
<linearGradient id="paint6_linear_228_238" x1="177.997" y1="442.794" x2="177.997" y2="365.122" gradientUnits="userSpaceOnUse">
<stop offset="0.197917" stop-color="#EBECEE"/>
<stop offset="1" stop-color="#C3C5CA"/>
</linearGradient>
<linearGradient id="paint7_linear_228_238" x1="219" y1="295" x2="616.444" y2="269.448" gradientUnits="userSpaceOnUse">
<stop offset="0.233333" stop-color="#E6DDFF"/>
<stop offset="0.916667" stop-color="white" stop-opacity="0"/>
</linearGradient>
<linearGradient id="paint8_linear_228_238" x1="372.346" y1="319.984" x2="352.891" y2="250.751" gradientUnits="userSpaceOnUse">
<stop stop-color="#CDD4E2"/>
<stop offset="1" stop-color="#D7DBE6"/>
</linearGradient>
</defs>
</svg>
