<svg width="128" height="129" viewBox="0 0 128 129" fill="none" xmlns="http://www.w3.org/2000/svg">
<path d="M62.262 124.519C94.439 124.519 120.523 98.0986 120.523 65.5186C120.523 32.9386 94.439 6.51855 62.262 6.51855C30.085 6.51855 4 32.9386 4 65.5186C4 98.0986 30.085 124.519 62.262 124.519Z" stroke="url(#paint0_linear_1_1791)" stroke-width="2" stroke-miterlimit="10" stroke-linecap="round" stroke-linejoin="round" stroke-dasharray="1 5"/>
<path d="M25.9934 46.9783C26.6985 46.7456 27.0843 45.9841 26.8551 45.2719C26.6259 44.5667 25.8686 44.1789 25.1635 44.4046C24.4576 44.6373 24.0719 45.3988 24.3011 46.111C24.5303 46.8232 25.2883 47.211 25.9934 46.9783Z" fill="#2A2E38"/>
<path d="M97.997 37.0076C98.5696 37.0076 99.0329 36.5422 99.0329 35.9569C99.0329 35.3787 98.5696 34.9062 97.997 34.9062C97.4252 34.9062 96.9612 35.3787 96.9612 35.9569C96.9612 36.5422 97.4252 37.0076 97.997 37.0076Z" fill="#6B30CC"/>
<path d="M98.3237 93.7574C98.7461 93.3625 98.7757 92.6997 98.3893 92.2695C98.0036 91.8394 97.3485 91.8112 96.9261 92.2061C96.5038 92.5939 96.4741 93.2567 96.8605 93.6869C97.2463 94.117 97.9013 94.1452 98.3237 93.7574Z" fill="#32D697"/>
<path d="M61.3503 31.3738V44.9055C61.3503 46.0831 60.6656 47.2606 59.6869 47.8459L49.3178 53.8325C48.7311 54.2203 47.9484 54.4178 47.2637 54.4178V37.5509L60.8609 29.7026C61.2523 30.1962 61.3503 30.7815 61.3503 31.3738Z" fill="#6B30CC"/>
<path d="M47.2643 37.5509V54.4178C46.5796 54.4178 45.895 54.2203 45.2103 53.8325L34.8405 47.8459C33.7644 47.2606 33.1777 46.1818 33.1777 44.9055V31.3738C33.1777 30.7815 33.3731 30.1962 33.6671 29.7026L47.2643 37.5509Z" fill="#8235FF"/>
<path d="M60.8612 29.7026L47.2639 37.5508L33.666 29.6038C33.9601 29.1173 34.3514 28.6237 34.9381 28.3346L45.5032 22.2493C46.4812 21.664 47.7526 21.664 48.8286 22.1505L59.7851 28.525C59.7851 28.525 59.7851 28.525 59.8831 28.525C60.2745 28.8212 60.6658 29.216 60.8612 29.7026Z" fill="#A269FF"/>
<path d="M55.2186 88.2876V97.7842C55.2186 98.6106 54.7381 99.437 54.0517 99.8478L46.7747 104.049C46.3624 104.321 45.8136 104.46 45.3331 104.46V92.6226L54.8757 87.1147C55.0815 87.4612 55.2186 87.8719 55.2186 88.2876Z" fill="#8662BB"/>
<path d="M45.3331 92.6226V104.46C44.8526 104.46 44.3721 104.321 43.8916 104.049L36.6145 99.8478C35.8593 99.437 35.4476 98.6799 35.4476 97.7842V88.2876C35.4476 87.8719 35.5847 87.4612 35.7906 87.1147L45.3331 92.6226Z" fill="#E6DCF8"/>
<path d="M54.8757 87.1147L45.3331 92.6226L35.7218 87.0454C35.9277 86.704 36.2023 86.3575 36.614 86.1546L44.0969 81.8146C44.7838 81.4039 45.6761 81.4039 46.4313 81.7453L54.1205 86.219C54.1205 86.219 54.1205 86.219 54.1888 86.219C54.4635 86.4961 54.7381 86.7732 54.8757 87.1147Z" fill="#B39BDE"/>
<path d="M87.8897 88.2878V97.7844C87.8897 98.6109 87.4092 99.4373 86.7228 99.8481L79.4457 104.05C79.0335 104.322 78.4842 104.46 78.0037 104.46V92.6229L87.5468 87.115C87.7526 87.4614 87.8897 87.8721 87.8897 88.2878Z" fill="#6B30CC"/>
<path d="M78.0028 92.6229V104.46C77.5223 104.46 77.0417 104.322 76.5612 104.05L69.2841 99.8481C68.5289 99.4373 68.1167 98.6802 68.1167 97.7844V88.2878C68.1167 87.8721 68.2543 87.4614 68.4602 87.115L78.0028 92.6229Z" fill="#8235FF"/>
<path d="M87.5467 87.1147L78.0036 92.6226L68.3922 87.0455C68.5986 86.704 68.8727 86.3576 69.2849 86.1547L76.7679 81.8146C77.4543 81.4039 78.347 81.4039 79.1022 81.7453L86.7915 86.219C86.7915 86.219 86.7915 86.219 86.8598 86.219C87.1345 86.4961 87.4091 86.7732 87.5467 87.1147Z" fill="#A269FF"/>
<mask id="mask0_1_1791" style="mask-type:alpha" maskUnits="userSpaceOnUse" x="79" y="32" width="10" height="17">
<path d="M88.4986 33.6419V42.5819C88.4986 43.3599 88.0463 44.1379 87.3996 44.5246L80.5491 48.4798C80.1615 48.736 79.6444 48.8664 79.192 48.8664V37.7229L88.1753 32.5378C88.4339 32.8639 88.4986 33.2506 88.4986 33.6419Z" fill="#6B30CC"/>
</mask>
<g mask="url(#mask0_1_1791)">
<path d="M88.4986 33.6419V42.5819C88.4986 43.3599 88.0463 44.1379 87.3996 44.5246L80.5491 48.4798C80.1615 48.736 79.6444 48.8664 79.192 48.8664V37.7229L88.1753 32.5378C88.4339 32.8639 88.4986 33.2506 88.4986 33.6419Z" fill="#00A26B"/>
</g>
<mask id="mask1_1_1791" style="mask-type:alpha" maskUnits="userSpaceOnUse" x="28" y="61" width="11" height="17">
<path d="M38.2477 62.14V71.0799C38.2477 71.8579 37.7953 72.636 37.1487 73.0226L30.2981 76.9778C29.9105 77.2341 29.3934 77.3645 28.941 77.3645V66.221L37.9244 61.0359C38.1829 61.362 38.2477 61.7487 38.2477 62.14Z" fill="#6B30CC"/>
</mask>
<g mask="url(#mask1_1_1791)">
<path d="M38.2477 62.14V71.0799C38.2477 71.8579 37.7953 72.636 37.1487 73.0226L30.2981 76.9778C29.9105 77.2341 29.3934 77.3645 28.941 77.3645V66.221L37.9244 61.0359C38.1829 61.362 38.2477 61.7487 38.2477 62.14Z" fill="#00A26B"/>
</g>
<path d="M79.192 37.7227V48.8662C78.7396 48.8662 78.2873 48.7358 77.8349 48.4795L70.9839 44.5243C70.273 44.1377 69.8854 43.4249 69.8854 42.5817V33.6417C69.8854 33.2504 70.0144 32.8637 70.2087 32.5376L79.192 37.7227Z" fill="#03CB88"/>
<path d="M28.941 66.2207V77.3642C28.4887 77.3642 28.0363 77.2338 27.584 76.9776L20.7329 73.0224C20.022 72.6357 19.6344 71.9229 19.6344 71.0797V62.1397C19.6344 61.7484 19.7634 61.3618 19.9577 61.0356L28.941 66.2207Z" fill="#03CB88"/>
<path d="M88.2429 32.5379L79.2596 37.723L70.2115 32.4727C70.4053 32.1512 70.6639 31.8251 71.0515 31.6341L78.0959 27.5484C78.7425 27.1618 79.5825 27.1618 80.2934 27.4833L87.4673 31.7599C87.4673 31.7599 87.4673 31.7599 87.532 31.7599C87.7906 31.9556 88.0491 32.2165 88.2429 32.5379Z" fill="#0CEDA2"/>
<path d="M37.992 61.036L29.0087 66.2211L19.9606 60.9707C20.1544 60.6493 20.4129 60.3232 20.8005 60.1322L27.8449 56.0465C28.4915 55.6598 29.3315 55.6599 30.0424 55.9813L37.2163 60.2579C37.2163 60.2579 37.2163 60.2579 37.281 60.2579C37.5396 60.4536 37.7981 60.7145 37.992 61.036Z" fill="#0CEDA2"/>
<path d="M105.001 61.6212V70.8659C105.001 71.6704 104.533 72.4749 103.865 72.8748L96.78 76.9648C96.3792 77.2297 95.8445 77.3646 95.3767 77.3646V65.8413L104.666 60.4795C104.867 60.8167 105.001 61.2166 105.001 61.6212Z" fill="#8662BB"/>
<path d="M95.3757 65.8413V77.3646C94.908 77.3646 94.4402 77.2297 93.9724 76.9648L86.8884 72.8748C86.1533 72.4749 85.752 71.7378 85.752 70.8659V61.6212C85.752 61.2166 85.8859 60.8167 86.0863 60.4795L95.3757 65.8413Z" fill="#E6DCF8"/>
<path d="M104.665 60.4796L95.3752 65.8414L86.0188 60.4122C86.2192 60.0798 86.4866 59.7425 86.8879 59.545L94.1723 55.3201C94.8405 54.9203 95.7095 54.9203 96.4447 55.2527L103.863 59.6751C103.863 59.6751 103.863 59.6751 103.93 59.6751C104.264 59.8774 104.464 60.1472 104.665 60.4796Z" fill="#B39BDE"/>
<path fill-rule="evenodd" clip-rule="evenodd" d="M54.794 69.2902C53.8732 68.9268 53.0327 68.4156 52.3133 67.7814C52.1653 67.6471 52.0238 67.5087 51.889 67.3661C51.3562 66.808 50.9327 66.1718 50.6367 65.4849C50.5657 65.3167 50.5029 65.1457 50.45 64.9722C50.4326 64.921 50.4166 64.8694 50.402 64.8175L51.4622 64.1179C51.5846 64.2187 51.7113 64.315 51.8421 64.4068C52.1671 64.6329 52.5178 64.8271 52.8883 64.9861C53.6536 65.321 54.4974 65.4825 55.3471 65.4567C56.1773 65.4441 56.976 65.1675 57.6032 64.6754C57.9236 64.4113 58.204 64.1099 58.4369 63.7793C58.5662 63.5965 58.6769 63.4053 58.7875 63.2139C58.8764 63.0602 58.9653 62.9065 59.0639 62.7571C59.4147 62.2304 59.9195 61.8014 60.5225 61.5172C61.1256 61.2331 61.8036 61.1049 62.482 61.1466C63.1604 61.1884 63.813 61.3986 64.3679 61.754C64.9228 62.1094 65.3586 62.5963 65.6273 63.1612C65.7433 62.7004 65.9688 62.268 66.2879 61.8938C66.5893 61.5631 66.9438 61.3784 67.3089 61.3618C67.6419 61.3525 67.9706 61.4834 68.2622 61.7414C68.5877 62.051 68.8299 62.4242 68.97 62.8321C69.0205 62.9673 69.0659 63.1063 69.1112 63.2455C69.1678 63.4186 69.2244 63.5917 69.2904 63.7571C69.4008 64.0401 69.5435 64.3119 69.7163 64.568C70.0367 65.0133 70.4447 65.2636 70.8687 65.275C71.3028 65.2984 71.734 65.1522 72.1248 64.8492C72.3254 64.6943 72.5048 64.5183 72.6593 64.325C72.7261 64.2419 72.7909 64.1547 72.8534 64.0635L73.395 64.6966C73.3875 64.7436 73.3793 64.7903 73.3705 64.8366C73.3435 64.9935 73.3117 65.1482 73.2751 65.3006C73.1365 65.8888 72.9218 66.4601 72.6354 67.0029C72.5664 67.1319 72.4942 67.2572 72.4186 67.3787C72.0973 67.9033 71.667 68.3669 71.1513 68.744C70.9149 68.9125 70.6523 69.0485 70.3719 69.1477C70.1629 69.2158 69.9455 69.261 69.7246 69.2823C69.2776 69.3228 68.8268 69.2527 68.4204 69.0796C67.8285 68.8387 67.2731 68.4086 66.7875 67.8153C66.3086 67.2205 65.9425 66.5579 65.7038 65.8545C65.682 65.7913 65.6615 65.7269 65.6424 65.6613V65.751C65.5882 65.8694 65.5265 65.9849 65.4577 66.097C64.9225 66.9432 64.2004 67.6808 63.3364 68.2639C62.3858 68.9195 61.2986 69.3947 60.14 69.661C59.3071 69.8555 58.4457 69.9311 57.5869 69.8851C57.1612 69.8622 56.7378 69.8124 56.3197 69.7362C55.796 69.6339 55.2849 69.4845 54.794 69.2902Z" fill="url(#paint1_linear_1_1791)"/>
<defs>
<linearGradient id="paint0_linear_1_1791" x1="10.7982" y1="77.1992" x2="115.905" y2="111.961" gradientUnits="userSpaceOnUse">
<stop stop-color="#6B30CC"/>
<stop offset="1" stop-color="#EFD1ED"/>
</linearGradient>
<linearGradient id="paint1_linear_1_1791" x1="69.5625" y1="68.4623" x2="65.6207" y2="58.0984" gradientUnits="userSpaceOnUse">
<stop offset="0.0113208" stop-color="#E2D6F7"/>
<stop offset="1" stop-color="white"/>
</linearGradient>
</defs>
</svg>
